<svg xml:space="preserve" viewBox="0 0 100 100" y="0" x="0" xmlns="http://www.w3.org/2000/svg" id="Layer_1" version="1.1" width="237px" height="237px">
	<g class="ldl-scale" style="transform-origin: 50% 50%; transform: rotate(0deg) scale(0.8, 0.8);">
		<g class="ldl-ani">
			<g class="ldl-layer">
				<g class="ldl-ani" style="transform-origin: 50px 50px; transform: scale(0.91); animation: 0.404858s linear -0.269906s infinite normal forwards running breath-93fe8007-1708-4e8a-b542-205cb85f6a8f;">
					<path fill="#c33837" d="M42.7 20.6L11.5 69.7c-1.8 2.7-2 6.1-.5 9 1.5 2.9 4.5 4.6 7.7 4.6H50V16.7c-2.9 0-5.6 1.4-7.3 3.9z" style="fill: rgb(195, 56, 55);">
					</path>
				</g>
			</g>
			<g class="ldl-layer">
				<g class="ldl-ani" style="transform-origin: 50px 50px; transform: scale(0.91); animation: 0.404858s linear -0.337382s infinite normal forwards running breath-93fe8007-1708-4e8a-b542-205cb85f6a8f;">
					<path fill="#e15c64" d="M89 78.7c1.5-2.9 1.4-6.3-.4-9L57.2 20.6c-1.6-2.4-4.3-3.9-7.2-3.9v66.6h31.3c3.2 0 6.1-1.8 7.7-4.6z" style="fill: rgb(225, 92, 100);">
					</path>
				</g>
			</g>
			<g class="ldl-layer">
				<g class="ldl-ani" style="transform-origin: 50px 50px; transform: scale(0.91); animation: 0.404858s linear -0.404858s infinite normal forwards running breath-93fe8007-1708-4e8a-b542-205cb85f6a8f;">
					<path d="M64.5 50.3l-5.8-5.8-8.7 8.7-8.7-8.7-5.8 5.8 8.7 8.7-8.7 8.7 5.8 5.8 8.7-8.7 8.7 8.7 5.8-5.8-8.7-8.7z" fill="#f4e6c8" style="fill: rgb(244, 230, 200);">
					</path>
				</g>
			</g>
			<metadata xmlns:d="https://loading.io/stock/">
				<name>
					error
				</name>
				<tags>
					fail,disable,exception,errant,bad,break,stop,error,web application
				</tags>
				<license>
					by
				</license>
				<slug>
					4grrdv
				</slug>
			</metadata>
		</g>
	</g>
</svg>
